  0
SECTION
  2
HEADER
  9
$ACADVER
  1
AC1014
  9
$HANDSEED
  5
FFFF
  9
$MEASUREMENT
 70
     1
  0
ENDSEC
  0
SECTION
  2
TABLES
  0
TABLE
  2
VPORT
  5
8
330
0
100
AcDbSymbolTable
 70
     4
  0
VPORT
  5
2E
330
8
100
AcDbSymbolTableRecord
100
AcDbViewportTableRecord
  2
*ACTIVE
 70
     0
 10
0.0
 20
0.0
 11
1.0
 21
1.0
 12
210.0
 22
148.5
 13
0.0
 23
0.0
 14
10.0
 24
10.0
 15
10.0
 25
10.0
 16
0.0
 26
0.0
 36
1.0
 17
0.0
 27
0.0
 37
0.0
 40
341.0
 41
1.24
 42
50.0
 43
0.0
 44
0.0
 50
0.0
 51
0.0
 71
     0
 72
   100
 73
     1
 74
     3
 75
     0
 76
     0
 77
     0
 78
     0
  0
ENDTAB
  0
TABLE
  2
LTYPE
  5
5
330
0
100
AcDbSymbolTable
 70
     1
  0
LTYPE
  5
14
330
5
100
AcDbSymbolTableRecord
100
AcDbLinetypeTableRecord
  2
BYBLOCK
 70
     0
  3

 72
    65
 73
     0
 40
0.0
  0
LTYPE
  5
15
330
5
100
AcDbSymbolTableRecord
100
AcDbLinetypeTableRecord
  2
BYLAYER
 70
     0
  3

 72
    65
 73
     0
 40
0.0
  0
LTYPE
  5
16
330
5
100
AcDbSymbolTableRecord
100
AcDbLinetypeTableRecord
  2
CONTINUOUS
 70
     0
  3
Solid line
 72
    65
 73
     0
 40
0.0
  0
ENDTAB
  0
TABLE
  2
LAYER
  5
2
100
AcDbSymbolTable
 70
3
  0
LAYER
  5
50
100
AcDbSymbolTableRecord
100
AcDbLayerTableRecord
  2
0
 70
0
  6
CONTINUOUS
  0
LAYER
  5
51
100
AcDbSymbolTableRecord
100
AcDbLayerTableRecord
  2
Cuts
 70
0
  6
CONTINUOUS
  0
LAYER
  5
52
100
AcDbSymbolTableRecord
100
AcDbLayerTableRecord
  2
Scribe
 70
0
  6
CONTINUOUS
  0
ENDTAB
  0
TABLE
  2
STYLE
  5
3
330
0
100
AcDbSymbolTable
 70
     1
  0
STYLE
  5
11
330
3
100
AcDbSymbolTableRecord
100
AcDbTextStyleTableRecord
  2
STANDARD
 70
     0
 40
0.0
 41
1.0
 50
0.0
 71
     0
 42
2.5
  3
txt
  4

  0
ENDTAB
  0
TABLE
  2
VIEW
  5
6
330
0
100
AcDbSymbolTable
 70
     0
  0
ENDTAB
  0
TABLE
  2
UCS
  5
7
330
0
100
AcDbSymbolTable
 70
     0
  0
ENDTAB
  0
TABLE
  2
APPID
  5
9
330
0
100
AcDbSymbolTable
 70
     2
  0
APPID
  5
12
330
9
100
AcDbSymbolTableRecord
100
AcDbRegAppTableRecord
  2
ACAD
 70
     0
  0
ENDTAB
  0
TABLE
  2
DIMSTYLE
  5
A
330
0
100
AcDbSymbolTable
 70
     1
  0
DIMSTYLE
105
27
330
A
100
AcDbSymbolTableRecord
100
AcDbDimStyleTableRecord
  2
ISO-25
 70
     0
  3

  4

  5

  6

  7

 40
1.0
 41
2.5
 42
0.625
 43
3.75
 44
1.25
 45
0.0
 46
0.0
 47
0.0
 48
0.0
140
2.5
141
2.5
142
0.0
143
0.03937007874016
144
1.0
145
0.0
146
1.0
147
0.625
 71
     0
 72
     0
 73
     0
 74
     0
 75
     0
 76
     0
 77
     1
 78
     8
170
     0
171
     3
172
     1
173
     0
174
     0
175
     0
176
     0
177
     0
178
     0
270
     2
271
     2
272
     2
273
     2
274
     3
340
11
275
     0
280
     0
281
     0
282
     0
283
     0
284
     8
285
     0
286
     0
287
     3
288
     0
  0
ENDTAB
  0
TABLE
  2
BLOCK_RECORD
  5
1
330
0
100
AcDbSymbolTable
 70
     1
  0
BLOCK_RECORD
  5
1F
330
1
100
AcDbSymbolTableRecord
100
AcDbBlockTableRecord
  2
*MODEL_SPACE
  0
BLOCK_RECORD
  5
1B
330
1
100
AcDbSymbolTableRecord
100
AcDbBlockTableRecord
  2
*PAPER_SPACE
  0
ENDTAB
  0
ENDSEC
  0
SECTION
  2
BLOCKS
  0
BLOCK
  5
20
330
1F
100
AcDbEntity
  8
0
100
AcDbBlockBegin
  2
*MODEL_SPACE
 70
     0
 10
0.0
 20
0.0
 30
0.0
  3
*MODEL_SPACE
  1

  0
ENDBLK
  5
21
330
1F
100
AcDbEntity
  8
0
100
AcDbBlockEnd
  0
BLOCK
  5
1C
330
1B
100
AcDbEntity
 67
     1
  8
0
100
AcDbBlockBegin
  2
*PAPER_SPACE
  1

  0
ENDBLK
  5
1D
330
1B
100
AcDbEntity
 67
     1
  8
0
100
AcDbBlockEnd
  0
ENDSEC
  0
SECTION
  2
ENTITIES
  0
LINE
  5
100
100
AcDbEntity
  8
0
 62
1
100
AcDbLine
 10
1128.494873
 20
233.378959
 30
0.0
 11
1132.990673
 21
233.378959
 31
0.0
  0
LINE
  5
101
100
AcDbEntity
  8
0
 62
1
100
AcDbLine
 10
1132.990673
 20
233.378959
 30
0.0
 11
1132.990673
 21
131.651959
 31
0.0
  0
LINE
  5
102
100
AcDbEntity
  8
0
 62
1
100
AcDbLine
 10
1132.990673
 20
131.651959
 30
0.0
 11
1128.494873
 21
131.651959
 31
0.0
  0
LINE
  5
103
100
AcDbEntity
  8
0
 62
1
100
AcDbLine
 10
1128.494873
 20
131.651959
 30
0.0
 11
1128.494873
 21
30.229759
 31
0.0
  0
LINE
  5
104
100
AcDbEntity
  8
0
 62
1
100
AcDbLine
 10
1128.494873
 20
30.229759
 30
0.0
 11
980.641473
 21
30.229759
 31
0.0
  0
LINE
  5
105
100
AcDbEntity
  8
0
 62
1
100
AcDbLine
 10
980.641473
 20
30.229759
 30
0.0
 11
980.641473
 21
34.725559
 31
0.0
  0
LINE
  5
106
100
AcDbEntity
  8
0
 62
1
100
AcDbLine
 10
980.641473
 20
34.725559
 30
0.0
 11
878.939873
 21
34.725559
 31
0.0
  0
LINE
  5
107
100
AcDbEntity
  8
0
 62
1
100
AcDbLine
 10
878.939873
 20
34.725559
 30
0.0
 11
878.939873
 21
30.229759
 31
0.0
  0
LINE
  5
108
100
AcDbEntity
  8
0
 62
1
100
AcDbLine
 10
878.939873
 20
30.229759
 30
0.0
 11
777.212873
 21
30.229759
 31
0.0
  0
LINE
  5
109
100
AcDbEntity
  8
0
 62
1
100
AcDbLine
 10
777.212873
 20
30.229759
 30
0.0
 11
731.086473
 21
30.229759
 31
0.0
  0
LINE
  5
10a
100
AcDbEntity
  8
0
 62
1
100
AcDbLine
 10
731.086473
 20
30.229759
 30
0.0
 11
731.086473
 21
131.651959
 31
0.0
  0
LINE
  5
10b
100
AcDbEntity
  8
0
 62
1
100
AcDbLine
 10
731.086473
 20
131.651959
 30
0.0
 11
726.590673
 21
131.651959
 31
0.0
  0
LINE
  5
10c
100
AcDbEntity
  8
0
 62
1
100
AcDbLine
 10
726.590673
 20
131.651959
 30
0.0
 11
726.590673
 21
233.378959
 31
0.0
  0
LINE
  5
10d
100
AcDbEntity
  8
0
 62
1
100
AcDbLine
 10
726.590673
 20
233.378959
 30
0.0
 11
731.086473
 21
233.378959
 31
0.0
  0
LINE
  5
10e
100
AcDbEntity
  8
0
 62
1
100
AcDbLine
 10
731.086473
 20
233.378959
 30
0.0
 11
731.086473
 21
335.080559
 31
0.0
  0
LINE
  5
10f
100
AcDbEntity
  8
0
 62
1
100
AcDbLine
 10
731.086473
 20
335.080559
 30
0.0
 11
726.590673
 21
335.080559
 31
0.0
  0
LINE
  5
110
100
AcDbEntity
  8
0
 62
1
100
AcDbLine
 10
726.590673
 20
335.080559
 30
0.0
 11
726.590673
 21
436.807559
 31
0.0
  0
LINE
  5
111
100
AcDbEntity
  8
0
 62
1
100
AcDbLine
 10
726.590673
 20
436.807559
 30
0.0
 11
731.086473
 21
436.807559
 31
0.0
  0
LINE
  5
112
100
AcDbEntity
  8
0
 62
1
100
AcDbLine
 10
731.086473
 20
436.807559
 30
0.0
 11
731.086473
 21
538.229759
 31
0.0
  0
LINE
  5
113
100
AcDbEntity
  8
0
 62
1
100
AcDbLine
 10
731.086473
 20
538.229759
 30
0.0
 11
1128.494873
 21
538.229759
 31
0.0
  0
LINE
  5
114
100
AcDbEntity
  8
0
 62
1
100
AcDbLine
 10
1128.494873
 20
538.229759
 30
0.0
 11
1128.494873
 21
385.944059
 31
0.0
  0
LINE
  5
115
100
AcDbEntity
  8
0
 62
1
100
AcDbLine
 10
1128.494873
 20
385.944059
 30
0.0
 11
1128.494873
 21
233.378959
 31
0.0
  0
LINE
  5
116
100
AcDbEntity
  8
0
 62
1
100
AcDbLine
 10
0.000000
 20
1022.879166
 30
0.0
 11
0.000000
 21
921.456963
 31
0.0
  0
LINE
  5
117
100
AcDbEntity
  8
0
 62
1
100
AcDbLine
 10
0.000000
 20
921.456963
 30
0.0
 11
4.495800
 21
921.456963
 31
0.0
  0
LINE
  5
118
100
AcDbEntity
  8
0
 62
1
100
AcDbLine
 10
4.495800
 20
921.456963
 30
0.0
 11
4.495800
 21
819.729963
 31
0.0
  0
LINE
  5
119
100
AcDbEntity
  8
0
 62
1
100
AcDbLine
 10
4.495800
 20
819.729963
 30
0.0
 11
0.000000
 21
819.729963
 31
0.0
  0
LINE
  5
11a
100
AcDbEntity
  8
0
 62
1
100
AcDbLine
 10
0.000000
 20
819.729963
 30
0.0
 11
0.000000
 21
718.028333
 31
0.0
  0
LINE
  5
11b
100
AcDbEntity
  8
0
 62
1
100
AcDbLine
 10
0.000000
 20
718.028333
 30
0.0
 11
4.495800
 21
718.028333
 31
0.0
  0
LINE
  5
11c
100
AcDbEntity
  8
0
 62
1
100
AcDbLine
 10
4.495800
 20
718.028333
 30
0.0
 11
4.495800
 21
616.301333
 31
0.0
  0
LINE
  5
11d
100
AcDbEntity
  8
0
 62
1
100
AcDbLine
 10
4.495800
 20
616.301333
 30
0.0
 11
0.000000
 21
616.301333
 31
0.0
  0
LINE
  5
11e
100
AcDbEntity
  8
0
 62
1
100
AcDbLine
 10
0.000000
 20
616.301333
 30
0.0
 11
0.000000
 21
514.879133
 31
0.0
  0
LINE
  5
11f
100
AcDbEntity
  8
0
 62
1
100
AcDbLine
 10
0.000000
 20
514.879133
 30
0.0
 11
114.122200
 21
514.879133
 31
0.0
  0
LINE
  5
120
100
AcDbEntity
  8
0
 62
1
100
AcDbLine
 10
114.122200
 20
514.879133
 30
0.0
 11
114.122200
 21
519.374933
 31
0.0
  0
LINE
  5
121
100
AcDbEntity
  8
0
 62
1
100
AcDbLine
 10
114.122200
 20
519.374933
 30
0.0
 11
215.849200
 21
519.374933
 31
0.0
  0
LINE
  5
122
100
AcDbEntity
  8
0
 62
1
100
AcDbLine
 10
215.849200
 20
519.374933
 30
0.0
 11
215.849200
 21
514.879133
 31
0.0
  0
LINE
  5
123
100
AcDbEntity
  8
0
 62
1
100
AcDbLine
 10
215.849200
 20
514.879133
 30
0.0
 11
317.550800
 21
514.879133
 31
0.0
  0
LINE
  5
124
100
AcDbEntity
  8
0
 62
1
100
AcDbLine
 10
317.550800
 20
514.879133
 30
0.0
 11
317.550800
 21
519.374933
 31
0.0
  0
LINE
  5
125
100
AcDbEntity
  8
0
 62
1
100
AcDbLine
 10
317.550800
 20
519.374933
 30
0.0
 11
419.277800
 21
519.374933
 31
0.0
  0
LINE
  5
126
100
AcDbEntity
  8
0
 62
1
100
AcDbLine
 10
419.277800
 20
519.374933
 30
0.0
 11
419.277800
 21
514.879133
 31
0.0
  0
LINE
  5
127
100
AcDbEntity
  8
0
 62
1
100
AcDbLine
 10
419.277800
 20
514.879133
 30
0.0
 11
521.004800
 21
514.879133
 31
0.0
  0
LINE
  5
128
100
AcDbEntity
  8
0
 62
1
100
AcDbLine
 10
521.004800
 20
514.879133
 30
0.0
 11
533.400000
 21
514.879133
 31
0.0
  0
LINE
  5
129
100
AcDbEntity
  8
0
 62
1
100
AcDbLine
 10
533.400000
 20
514.879133
 30
0.0
 11
533.400000
 21
616.301333
 31
0.0
  0
LINE
  5
12a
100
AcDbEntity
  8
0
 62
1
100
AcDbLine
 10
533.400000
 20
616.301333
 30
0.0
 11
528.904200
 21
616.301333
 31
0.0
  0
LINE
  5
12b
100
AcDbEntity
  8
0
 62
1
100
AcDbLine
 10
528.904200
 20
616.301333
 30
0.0
 11
528.904200
 21
718.028333
 31
0.0
  0
LINE
  5
12c
100
AcDbEntity
  8
0
 62
1
100
AcDbLine
 10
528.904200
 20
718.028333
 30
0.0
 11
533.400000
 21
718.028333
 31
0.0
  0
LINE
  5
12d
100
AcDbEntity
  8
0
 62
1
100
AcDbLine
 10
533.400000
 20
718.028333
 30
0.0
 11
533.400000
 21
819.729963
 31
0.0
  0
LINE
  5
12e
100
AcDbEntity
  8
0
 62
1
100
AcDbLine
 10
533.400000
 20
819.729963
 30
0.0
 11
528.904200
 21
819.729963
 31
0.0
  0
LINE
  5
12f
100
AcDbEntity
  8
0
 62
1
100
AcDbLine
 10
528.904200
 20
819.729963
 30
0.0
 11
528.904200
 21
921.456963
 31
0.0
  0
LINE
  5
130
100
AcDbEntity
  8
0
 62
1
100
AcDbLine
 10
528.904200
 20
921.456963
 30
0.0
 11
533.400000
 21
921.456963
 31
0.0
  0
LINE
  5
131
100
AcDbEntity
  8
0
 62
1
100
AcDbLine
 10
533.400000
 20
921.456963
 30
0.0
 11
533.400000
 21
1022.879166
 31
0.0
  0
LINE
  5
132
100
AcDbEntity
  8
0
 62
1
100
AcDbLine
 10
533.400000
 20
1022.879166
 30
0.0
 11
0.000000
 21
1022.879166
 31
0.0
  0
LINE
  5
133
100
AcDbEntity
  8
0
 62
1
100
AcDbLine
 10
731.086473
 20
744.553959
 30
0.0
 11
726.590673
 21
744.553959
 31
0.0
  0
LINE
  5
134
100
AcDbEntity
  8
0
 62
1
100
AcDbLine
 10
726.590673
 20
744.553959
 30
0.0
 11
726.590673
 21
642.826959
 31
0.0
  0
LINE
  5
135
100
AcDbEntity
  8
0
 62
1
100
AcDbLine
 10
726.590673
 20
642.826959
 30
0.0
 11
731.086473
 21
642.826959
 31
0.0
  0
LINE
  5
136
100
AcDbEntity
  8
0
 62
1
100
AcDbLine
 10
731.086473
 20
642.826959
 30
0.0
 11
731.086473
 21
541.404759
 31
0.0
  0
LINE
  5
137
100
AcDbEntity
  8
0
 62
1
100
AcDbLine
 10
731.086473
 20
541.404759
 30
0.0
 11
878.939873
 21
541.404759
 31
0.0
  0
LINE
  5
138
100
AcDbEntity
  8
0
 62
1
100
AcDbLine
 10
878.939873
 20
541.404759
 30
0.0
 11
878.939873
 21
545.900559
 31
0.0
  0
LINE
  5
139
100
AcDbEntity
  8
0
 62
1
100
AcDbLine
 10
878.939873
 20
545.900559
 30
0.0
 11
980.641473
 21
545.900559
 31
0.0
  0
LINE
  5
13a
100
AcDbEntity
  8
0
 62
1
100
AcDbLine
 10
980.641473
 20
545.900559
 30
0.0
 11
980.641473
 21
541.404759
 31
0.0
  0
LINE
  5
13b
100
AcDbEntity
  8
0
 62
1
100
AcDbLine
 10
980.641473
 20
541.404759
 30
0.0
 11
1082.368473
 21
541.404759
 31
0.0
  0
LINE
  5
13c
100
AcDbEntity
  8
0
 62
1
100
AcDbLine
 10
1082.368473
 20
541.404759
 30
0.0
 11
1128.494873
 21
541.404759
 31
0.0
  0
LINE
  5
13d
100
AcDbEntity
  8
0
 62
1
100
AcDbLine
 10
1128.494873
 20
541.404759
 30
0.0
 11
1128.494873
 21
642.826959
 31
0.0
  0
LINE
  5
13e
100
AcDbEntity
  8
0
 62
1
100
AcDbLine
 10
1128.494873
 20
642.826959
 30
0.0
 11
1132.990673
 21
642.826959
 31
0.0
  0
LINE
  5
13f
100
AcDbEntity
  8
0
 62
1
100
AcDbLine
 10
1132.990673
 20
642.826959
 30
0.0
 11
1132.990673
 21
744.553959
 31
0.0
  0
LINE
  5
140
100
AcDbEntity
  8
0
 62
1
100
AcDbLine
 10
1132.990673
 20
744.553959
 30
0.0
 11
1128.494873
 21
744.553959
 31
0.0
  0
LINE
  5
141
100
AcDbEntity
  8
0
 62
1
100
AcDbLine
 10
1128.494873
 20
744.553959
 30
0.0
 11
1128.494873
 21
846.255567
 31
0.0
  0
LINE
  5
142
100
AcDbEntity
  8
0
 62
1
100
AcDbLine
 10
1128.494873
 20
846.255567
 30
0.0
 11
1132.990673
 21
846.255567
 31
0.0
  0
LINE
  5
143
100
AcDbEntity
  8
0
 62
1
100
AcDbLine
 10
1132.990673
 20
846.255567
 30
0.0
 11
1132.990673
 21
947.982567
 31
0.0
  0
LINE
  5
144
100
AcDbEntity
  8
0
 62
1
100
AcDbLine
 10
1132.990673
 20
947.982567
 30
0.0
 11
1128.494873
 21
947.982567
 31
0.0
  0
LINE
  5
145
100
AcDbEntity
  8
0
 62
1
100
AcDbLine
 10
1128.494873
 20
947.982567
 30
0.0
 11
1128.494873
 21
1049.404767
 31
0.0
  0
LINE
  5
146
100
AcDbEntity
  8
0
 62
1
100
AcDbLine
 10
1128.494873
 20
1049.404767
 30
0.0
 11
731.086473
 21
1049.404767
 31
0.0
  0
LINE
  5
147
100
AcDbEntity
  8
0
 62
1
100
AcDbLine
 10
731.086473
 20
1049.404767
 30
0.0
 11
731.086473
 21
897.119067
 31
0.0
  0
LINE
  5
148
100
AcDbEntity
  8
0
 62
1
100
AcDbLine
 10
731.086473
 20
897.119067
 30
0.0
 11
731.086473
 21
744.553959
 31
0.0
  0
LINE
  5
149
100
AcDbEntity
  8
0
 62
1
100
AcDbLine
 10
17.841563
 20
449.408118
 30
0.0
 11
17.841563
 21
301.554718
 31
0.0
  0
LINE
  5
14a
100
AcDbEntity
  8
0
 62
1
100
AcDbLine
 10
17.841563
 20
301.554718
 30
0.0
 11
13.345763
 21
301.554718
 31
0.0
  0
LINE
  5
14b
100
AcDbEntity
  8
0
 62
1
100
AcDbLine
 10
13.345763
 20
301.554718
 30
0.0
 11
13.345763
 21
199.853118
 31
0.0
  0
LINE
  5
14c
100
AcDbEntity
  8
0
 62
1
100
AcDbLine
 10
13.345763
 20
199.853118
 30
0.0
 11
17.841563
 21
199.853118
 31
0.0
  0
LINE
  5
14d
100
AcDbEntity
  8
0
 62
1
100
AcDbLine
 10
17.841563
 20
199.853118
 30
0.0
 11
17.841563
 21
98.126118
 31
0.0
  0
LINE
  5
14e
100
AcDbEntity
  8
0
 62
1
100
AcDbLine
 10
17.841563
 20
98.126118
 30
0.0
 11
17.841563
 21
51.999718
 31
0.0
  0
LINE
  5
14f
100
AcDbEntity
  8
0
 62
1
100
AcDbLine
 10
17.841563
 20
51.999718
 30
0.0
 11
127.467962
 21
51.999718
 31
0.0
  0
LINE
  5
150
100
AcDbEntity
  8
0
 62
1
100
AcDbLine
 10
127.467962
 20
51.999718
 30
0.0
 11
127.467962
 21
47.503918
 31
0.0
  0
LINE
  5
151
100
AcDbEntity
  8
0
 62
1
100
AcDbLine
 10
127.467962
 20
47.503918
 30
0.0
 11
229.194962
 21
47.503918
 31
0.0
  0
LINE
  5
152
100
AcDbEntity
  8
0
 62
1
100
AcDbLine
 10
229.194962
 20
47.503918
 30
0.0
 11
229.194962
 21
51.999718
 31
0.0
  0
LINE
  5
153
100
AcDbEntity
  8
0
 62
1
100
AcDbLine
 10
229.194962
 20
51.999718
 30
0.0
 11
330.896570
 21
51.999718
 31
0.0
  0
LINE
  5
154
100
AcDbEntity
  8
0
 62
1
100
AcDbLine
 10
330.896570
 20
51.999718
 30
0.0
 11
330.896570
 21
47.503918
 31
0.0
  0
LINE
  5
155
100
AcDbEntity
  8
0
 62
1
100
AcDbLine
 10
330.896570
 20
47.503918
 30
0.0
 11
432.623570
 21
47.503918
 31
0.0
  0
LINE
  5
156
100
AcDbEntity
  8
0
 62
1
100
AcDbLine
 10
432.623570
 20
47.503918
 30
0.0
 11
432.623570
 21
51.999718
 31
0.0
  0
LINE
  5
157
100
AcDbEntity
  8
0
 62
1
100
AcDbLine
 10
432.623570
 20
51.999718
 30
0.0
 11
534.350570
 21
51.999718
 31
0.0
  0
LINE
  5
158
100
AcDbEntity
  8
0
 62
1
100
AcDbLine
 10
534.350570
 20
51.999718
 30
0.0
 11
542.249970
 21
51.999718
 31
0.0
  0
LINE
  5
159
100
AcDbEntity
  8
0
 62
1
100
AcDbLine
 10
542.249970
 20
51.999718
 30
0.0
 11
542.249970
 21
199.853118
 31
0.0
  0
LINE
  5
15a
100
AcDbEntity
  8
0
 62
1
100
AcDbLine
 10
542.249970
 20
199.853118
 30
0.0
 11
546.745770
 21
199.853118
 31
0.0
  0
LINE
  5
15b
100
AcDbEntity
  8
0
 62
1
100
AcDbLine
 10
546.745770
 20
199.853118
 30
0.0
 11
546.745770
 21
301.554718
 31
0.0
  0
LINE
  5
15c
100
AcDbEntity
  8
0
 62
1
100
AcDbLine
 10
546.745770
 20
301.554718
 30
0.0
 11
542.249970
 21
301.554718
 31
0.0
  0
LINE
  5
15d
100
AcDbEntity
  8
0
 62
1
100
AcDbLine
 10
542.249970
 20
301.554718
 30
0.0
 11
542.249970
 21
403.281718
 31
0.0
  0
LINE
  5
15e
100
AcDbEntity
  8
0
 62
1
100
AcDbLine
 10
542.249970
 20
403.281718
 30
0.0
 11
542.249970
 21
449.408118
 31
0.0
  0
LINE
  5
15f
100
AcDbEntity
  8
0
 62
1
100
AcDbLine
 10
542.249970
 20
449.408118
 30
0.0
 11
432.623570
 21
449.408118
 31
0.0
  0
LINE
  5
160
100
AcDbEntity
  8
0
 62
1
100
AcDbLine
 10
432.623570
 20
449.408118
 30
0.0
 11
432.623570
 21
453.903918
 31
0.0
  0
LINE
  5
161
100
AcDbEntity
  8
0
 62
1
100
AcDbLine
 10
432.623570
 20
453.903918
 30
0.0
 11
330.896570
 21
453.903918
 31
0.0
  0
LINE
  5
162
100
AcDbEntity
  8
0
 62
1
100
AcDbLine
 10
330.896570
 20
453.903918
 30
0.0
 11
330.896570
 21
449.408118
 31
0.0
  0
LINE
  5
163
100
AcDbEntity
  8
0
 62
1
100
AcDbLine
 10
330.896570
 20
449.408118
 30
0.0
 11
229.194962
 21
449.408118
 31
0.0
  0
LINE
  5
164
100
AcDbEntity
  8
0
 62
1
100
AcDbLine
 10
229.194962
 20
449.408118
 30
0.0
 11
229.194962
 21
453.903918
 31
0.0
  0
LINE
  5
165
100
AcDbEntity
  8
0
 62
1
100
AcDbLine
 10
229.194962
 20
453.903918
 30
0.0
 11
127.467962
 21
453.903918
 31
0.0
  0
LINE
  5
166
100
AcDbEntity
  8
0
 62
1
100
AcDbLine
 10
127.467962
 20
453.903918
 30
0.0
 11
127.467962
 21
449.408118
 31
0.0
  0
LINE
  5
167
100
AcDbEntity
  8
0
 62
1
100
AcDbLine
 10
127.467962
 20
449.408118
 30
0.0
 11
25.740962
 21
449.408118
 31
0.0
  0
LINE
  5
168
100
AcDbEntity
  8
0
 62
1
100
AcDbLine
 10
25.740962
 20
449.408118
 30
0.0
 11
17.841563
 21
449.408118
 31
0.0
  0
SPLINE
  5
169
100
AcDbEntity
  8
0
 62
7
100
AcDbSpline
 70
8
 71
3
 72
8
 73
4
 74
0
 40
0
 40
0
 40
0
 40
0
 40
1
 40
1
 40
1
 40
1
 10
177.050301
 20
760.173562
 30
0.0
 10
177.050296
 20
725.201646
 30
0.0
 10
148.699954
 20
696.851310
 30
0.0
 10
113.728038
 20
696.851311
 30
0.0
  0
SPLINE
  5
16a
100
AcDbEntity
  8
0
 62
7
100
AcDbSpline
 70
8
 71
3
 72
8
 73
4
 74
0
 40
0
 40
0
 40
0
 40
0
 40
1
 40
1
 40
1
 40
1
 10
113.728038
 20
696.851311
 30
0.0
 10
78.756123
 20
696.851311
 30
0.0
 10
50.405782
 20
725.201647
 30
0.0
 10
50.405777
 20
760.173562
 30
0.0
  0
SPLINE
  5
16b
100
AcDbEntity
  8
0
 62
7
100
AcDbSpline
 70
8
 71
3
 72
8
 73
4
 74
0
 40
0
 40
0
 40
0
 40
0
 40
1
 40
1
 40
1
 40
1
 10
50.405777
 20
760.173562
 30
0.0
 10
50.405777
 20
776.967670
 30
0.0
 10
57.077210
 20
793.073935
 30
0.0
 10
68.952438
 20
804.949162
 30
0.0
  0
SPLINE
  5
16c
100
AcDbEntity
  8
0
 62
7
100
AcDbSpline
 70
8
 71
3
 72
8
 73
4
 74
0
 40
0
 40
0
 40
0
 40
0
 40
1
 40
1
 40
1
 40
1
 10
68.952438
 20
804.949162
 30
0.0
 10
80.827665
 20
816.824390
 30
0.0
 10
96.933930
 20
823.495823
 30
0.0
 10
113.728038
 20
823.495823
 30
0.0
  0
SPLINE
  5
16d
100
AcDbEntity
  8
0
 62
7
100
AcDbSpline
 70
8
 71
3
 72
8
 73
4
 74
0
 40
0
 40
0
 40
0
 40
0
 40
1
 40
1
 40
1
 40
1
 10
113.728038
 20
823.495823
 30
0.0
 10
130.522146
 20
823.495824
 30
0.0
 10
146.628411
 20
816.824391
 30
0.0
 10
158.503639
 20
804.949163
 30
0.0
  0
SPLINE
  5
16e
100
AcDbEntity
  8
0
 62
7
100
AcDbSpline
 70
8
 71
3
 72
8
 73
4
 74
0
 40
0
 40
0
 40
0
 40
0
 40
1
 40
1
 40
1
 40
1
 10
158.503639
 20
804.949163
 30
0.0
 10
170.378868
 20
793.073936
 30
0.0
 10
177.050301
 20
776.967670
 30
0.0
 10
177.050301
 20
760.173562
 30
0.0
  0
LINE
  5
16f
100
AcDbEntity
  8
0
 62
7
100
AcDbLine
 10
177.050301
 20
760.173562
 30
0.0
 11
177.050301
 21
760.173562
 31
0.0
  0
LINE
  5
170
100
AcDbEntity
  8
0
 62
1
100
AcDbLine
 10
672.011966
 20
1203.680905
 30
0.0
 11
672.011966
 21
1178.188820
 31
0.0
  0
LINE
  5
171
100
AcDbEntity
  8
0
 62
1
100
AcDbLine
 10
672.011966
 20
1178.188820
 30
0.0
 11
667.516166
 21
1178.188820
 31
0.0
  0
LINE
  5
172
100
AcDbEntity
  8
0
 62
1
100
AcDbLine
 10
667.516166
 20
1178.188820
 30
0.0
 11
667.516166
 21
1076.766620
 31
0.0
  0
LINE
  5
173
100
AcDbEntity
  8
0
 62
1
100
AcDbLine
 10
667.516166
 20
1076.766620
 30
0.0
 11
781.638366
 21
1076.766620
 31
0.0
  0
LINE
  5
174
100
AcDbEntity
  8
0
 62
1
100
AcDbLine
 10
781.638366
 20
1076.766620
 30
0.0
 11
781.638366
 21
1081.262420
 31
0.0
  0
LINE
  5
175
100
AcDbEntity
  8
0
 62
1
100
AcDbLine
 10
781.638366
 20
1081.262420
 30
0.0
 11
883.365366
 21
1081.262420
 31
0.0
  0
LINE
  5
176
100
AcDbEntity
  8
0
 62
1
100
AcDbLine
 10
883.365366
 20
1081.262420
 30
0.0
 11
883.365366
 21
1076.766620
 31
0.0
  0
LINE
  5
177
100
AcDbEntity
  8
0
 62
1
100
AcDbLine
 10
883.365366
 20
1076.766620
 30
0.0
 11
985.066966
 21
1076.766620
 31
0.0
  0
LINE
  5
178
100
AcDbEntity
  8
0
 62
1
100
AcDbLine
 10
985.066966
 20
1076.766620
 30
0.0
 11
985.066966
 21
1081.262420
 31
0.0
  0
LINE
  5
179
100
AcDbEntity
  8
0
 62
1
100
AcDbLine
 10
985.066966
 20
1081.262420
 30
0.0
 11
1086.793966
 21
1081.262420
 31
0.0
  0
LINE
  5
17a
100
AcDbEntity
  8
0
 62
1
100
AcDbLine
 10
1086.793966
 20
1081.262420
 30
0.0
 11
1086.793966
 21
1076.766620
 31
0.0
  0
LINE
  5
17b
100
AcDbEntity
  8
0
 62
1
100
AcDbLine
 10
1086.793966
 20
1076.766620
 30
0.0
 11
1188.520966
 21
1076.766620
 31
0.0
  0
LINE
  5
17c
100
AcDbEntity
  8
0
 62
1
100
AcDbLine
 10
1188.520966
 20
1076.766620
 30
0.0
 11
1200.916166
 21
1076.766620
 31
0.0
  0
LINE
  5
17d
100
AcDbEntity
  8
0
 62
1
100
AcDbLine
 10
1200.916166
 20
1076.766620
 30
0.0
 11
1200.916166
 21
1178.188820
 31
0.0
  0
LINE
  5
17e
100
AcDbEntity
  8
0
 62
1
100
AcDbLine
 10
1200.916166
 20
1178.188820
 30
0.0
 11
1196.420366
 21
1178.188820
 31
0.0
  0
LINE
  5
17f
100
AcDbEntity
  8
0
 62
1
100
AcDbLine
 10
1196.420366
 20
1178.188820
 30
0.0
 11
1196.420366
 21
1203.806269
 31
0.0
  0
LINE
  5
180
100
AcDbEntity
  8
0
 62
7
100
AcDbLine
 10
672.012118
 20
1203.680900
 30
0.0
 11
1196.068499
 21
1203.680900
 31
0.0
  0
LINE
  5
181
100
AcDbEntity
  8
0
 62
7
100
AcDbLine
 10
1196.068499
 20
1203.680900
 30
0.0
 11
1196.420797
 21
1203.806376
 31
0.0
  0
SPLINE
  5
182
100
AcDbEntity
  8
0
 62
7
100
AcDbSpline
 70
8
 71
3
 72
8
 73
4
 74
0
 40
0
 40
0
 40
0
 40
0
 40
1
 40
1
 40
1
 40
1
 10
482.954487
 20
760.786261
 30
0.0
 10
482.954487
 20
738.144532
 30
0.0
 10
470.875269
 20
717.222711
 30
0.0
 10
451.266956
 20
705.901847
 30
0.0
  0
SPLINE
  5
183
100
AcDbEntity
  8
0
 62
7
100
AcDbSpline
 70
8
 71
3
 72
8
 73
4
 74
0
 40
0
 40
0
 40
0
 40
0
 40
1
 40
1
 40
1
 40
1
 10
451.266956
 20
705.901847
 30
0.0
 10
431.658644
 20
694.580982
 30
0.0
 10
407.500206
 20
694.580982
 30
0.0
 10
387.891894
 20
705.901847
 30
0.0
  0
SPLINE
  5
184
100
AcDbEntity
  8
0
 62
7
100
AcDbSpline
 70
8
 71
3
 72
8
 73
4
 74
0
 40
0
 40
0
 40
0
 40
0
 40
1
 40
1
 40
1
 40
1
 10
387.891894
 20
705.901847
 30
0.0
 10
368.283581
 20
717.222711
 30
0.0
 10
356.204363
 20
738.144532
 30
0.0
 10
356.204363
 20
760.786261
 30
0.0
  0
SPLINE
  5
185
100
AcDbEntity
  8
0
 62
7
100
AcDbSpline
 70
8
 71
3
 72
8
 73
4
 74
0
 40
0
 40
0
 40
0
 40
0
 40
1
 40
1
 40
1
 40
1
 10
356.204363
 20
760.786261
 30
0.0
 10
356.204363
 20
783.427990
 30
0.0
 10
368.283581
 20
804.349811
 30
0.0
 10
387.891894
 20
815.670675
 30
0.0
  0
SPLINE
  5
186
100
AcDbEntity
  8
0
 62
7
100
AcDbSpline
 70
8
 71
3
 72
8
 73
4
 74
0
 40
0
 40
0
 40
0
 40
0
 40
1
 40
1
 40
1
 40
1
 10
387.891894
 20
815.670675
 30
0.0
 10
407.500206
 20
826.991540
 30
0.0
 10
431.658644
 20
826.991540
 30
0.0
 10
451.266956
 20
815.670675
 30
0.0
  0
SPLINE
  5
187
100
AcDbEntity
  8
0
 62
7
100
AcDbSpline
 70
8
 71
3
 72
8
 73
4
 74
0
 40
0
 40
0
 40
0
 40
0
 40
1
 40
1
 40
1
 40
1
 10
451.266956
 20
815.670675
 30
0.0
 10
470.875269
 20
804.349811
 30
0.0
 10
482.954487
 20
783.427990
 30
0.0
 10
482.954487
 20
760.786261
 30
0.0
  0
LINE
  5
188
100
AcDbEntity
  8
0
 62
7
100
AcDbLine
 10
482.954487
 20
760.786261
 30
0.0
 11
482.954487
 21
760.786261
 31
0.0
  0
LINE
  5
189
100
AcDbEntity
  8
Scribe
 62
1
100
AcDbLine
 10
694.570595
 20
1181.076513
 30
0.0
 11
1178.854361
 21
1181.076513
 31
0.0
  0
LINE
  5
18a
100
AcDbEntity
  8
Scribe
 62
1
100
AcDbLine
 10
1178.854361
 20
1181.076513
 30
0.0
 11
1178.854361
 21
1104.593651
 31
0.0
  0
LINE
  5
18b
100
AcDbEntity
  8
Scribe
 62
1
100
AcDbLine
 10
1178.854361
 20
1104.593651
 30
0.0
 11
694.570595
 21
1104.593651
 31
0.0
  0
LINE
  5
18c
100
AcDbEntity
  8
Scribe
 62
1
100
AcDbLine
 10
694.570595
 20
1104.593651
 30
0.0
 11
694.570595
 21
1181.076513
 31
0.0
  0
LINE
  5
18d
100
AcDbEntity
  8
Scribe
 62
1
100
AcDbLine
 10
761.813285
 20
1016.116502
 30
0.0
 11
1103.977599
 21
1016.116502
 31
0.0
  0
LINE
  5
18e
100
AcDbEntity
  8
Scribe
 62
1
100
AcDbLine
 10
1103.977599
 20
1016.116502
 30
0.0
 11
1103.977599
 21
571.790619
 31
0.0
  0
LINE
  5
18f
100
AcDbEntity
  8
Scribe
 62
1
100
AcDbLine
 10
1103.977599
 20
571.790619
 30
0.0
 11
761.813285
 21
571.790619
 31
0.0
  0
LINE
  5
190
100
AcDbEntity
  8
Scribe
 62
1
100
AcDbLine
 10
761.813285
 20
571.790619
 30
0.0
 11
761.813285
 21
1016.116502
 31
0.0
  0
LINE
  5
191
100
AcDbEntity
  8
Scribe
 62
1
100
AcDbLine
 10
26.599157
 20
997.770057
 30
0.0
 11
504.602722
 21
997.770057
 31
0.0
  0
LINE
  5
192
100
AcDbEntity
  8
Scribe
 62
1
100
AcDbLine
 10
504.602722
 20
997.770057
 30
0.0
 11
504.602722
 21
539.751593
 31
0.0
  0
LINE
  5
193
100
AcDbEntity
  8
Scribe
 62
1
100
AcDbLine
 10
504.602722
 20
539.751593
 30
0.0
 11
26.599157
 21
539.751593
 31
0.0
  0
LINE
  5
194
100
AcDbEntity
  8
Scribe
 62
1
100
AcDbLine
 10
26.599157
 20
539.751593
 30
0.0
 11
26.599157
 21
997.770057
 31
0.0
  0
LINE
  5
195
100
AcDbEntity
  8
Scribe
 62
1
100
AcDbLine
 10
38.170856
 20
432.093726
 30
0.0
 11
525.230994
 21
432.093726
 31
0.0
  0
LINE
  5
196
100
AcDbEntity
  8
Scribe
 62
1
100
AcDbLine
 10
525.230994
 20
432.093726
 30
0.0
 11
525.230994
 21
67.180308
 31
0.0
  0
LINE
  5
197
100
AcDbEntity
  8
Scribe
 62
1
100
AcDbLine
 10
525.230994
 20
67.180308
 30
0.0
 11
38.170856
 21
67.180308
 31
0.0
  0
LINE
  5
198
100
AcDbEntity
  8
Scribe
 62
1
100
AcDbLine
 10
38.170856
 20
67.180308
 30
0.0
 11
38.170856
 21
432.093726
 31
0.0
  0
LINE
  5
199
100
AcDbEntity
  8
Scribe
 62
1
100
AcDbLine
 10
761.049862
 20
511.497936
 30
0.0
 11
1103.214177
 21
511.497936
 31
0.0
  0
LINE
  5
19a
100
AcDbEntity
  8
Scribe
 62
1
100
AcDbLine
 10
1103.214177
 20
511.497936
 30
0.0
 11
1103.214177
 21
67.172053
 31
0.0
  0
LINE
  5
19b
100
AcDbEntity
  8
Scribe
 62
1
100
AcDbLine
 10
1103.214177
 20
67.172053
 30
0.0
 11
761.049862
 21
67.172053
 31
0.0
  0
LINE
  5
19c
100
AcDbEntity
  8
Scribe
 62
1
100
AcDbLine
 10
761.049862
 20
67.172053
 30
0.0
 11
761.049862
 21
511.497936
 31
0.0
  0
ENDSEC
  0
SECTION
  2
OBJECTS
  0
DICTIONARY
  5
C
330
0
100
AcDbDictionary
  3
ACAD_GROUP
350
D
  3
ACAD_MLINESTYLE
350
17
  0
DICTIONARY
  5
D
330
C
100
AcDbDictionary
  0
DICTIONARY
  5
1A
330
C
100
AcDbDictionary
  0
DICTIONARY
  5
17
330
C
100
AcDbDictionary
  3
STANDARD
350
18
  0
DICTIONARY
  5
19
330
C
100
AcDbDictionary
  0
ENDSEC
  0
EOF
