<?xml version="1.0" encoding="UTF-8" standalone="no"?>
<svg
   xmlns:dc="http://purl.org/dc/elements/1.1/"
   xmlns:cc="http://creativecommons.org/ns#"
   xmlns:rdf="http://www.w3.org/1999/02/22-rdf-syntax-ns#"
   xmlns:svg="http://www.w3.org/2000/svg"
   xmlns="http://www.w3.org/2000/svg"
   xmlns:sodipodi="http://sodipodi.sourceforge.net/DTD/sodipodi-0.dtd"
   xmlns:inkscape="http://www.inkscape.org/namespaces/inkscape"
   version="1.1"
   id="svg2"
   xml:space="preserve"
   width="700mm"
   height="700mm"
   viewBox="0 0 2645.6693 2645.6693"
   sodipodi:docname="20201010-scf-innovation-lab-sign-fixed.svg"
   inkscape:version="1.0 (4035a4f, 2020-05-01)"><metadata
     id="metadata8"><rdf:RDF><cc:Work
         rdf:about=""><dc:format>image/svg+xml</dc:format><dc:type
           rdf:resource="http://purl.org/dc/dcmitype/StillImage" /><dc:title></dc:title></cc:Work></rdf:RDF></metadata><defs
     id="defs6"><clipPath
       clipPathUnits="userSpaceOnUse"
       id="clipPath18"><path
         d="M 0,566.929 H 566.929 V 0 H 0 Z"
         id="path16"
         inkscape:connector-curvature="0" /></clipPath><linearGradient
       x1="0"
       y1="0"
       x2="1"
       y2="0"
       gradientUnits="userSpaceOnUse"
       gradientTransform="matrix(23.416729,40.558947,-40.558947,23.416729,-270.52441,97.703167)"
       spreadMethod="pad"
       id="linearGradient26"><stop
         style="stop-opacity:1;stop-color:#f89521"
         offset="0"
         id="stop22" /><stop
         style="stop-opacity:1;stop-color:#dd1865"
         offset="1"
         id="stop24" /></linearGradient></defs><sodipodi:namedview
     pagecolor="#ffffff"
     bordercolor="#666666"
     borderopacity="1"
     objecttolerance="10"
     gridtolerance="10"
     guidetolerance="10"
     inkscape:pageopacity="0"
     inkscape:pageshadow="2"
     inkscape:window-width="1935"
     inkscape:window-height="1168"
     id="namedview4"
     showgrid="false"
     inkscape:zoom="1"
     inkscape:cx="1408.0794"
     inkscape:cy="419.36724"
     inkscape:window-x="49"
     inkscape:window-y="23"
     inkscape:window-maximized="0"
     inkscape:current-layer="g4600"
     inkscape:document-rotation="0"
     inkscape:document-units="mm"
     units="mm" /><g
     id="g10"
     inkscape:groupmode="layer"
     inkscape:label="innovation-lab-bulb-white(1)"
     transform="matrix(1.3333333,0,0,-1.3333333,-43.66467,271.69987)"><g
       id="g4600"
       transform="matrix(0.33719212,0,0,0.33719212,21.705967,16.639536)"><g
   inkscape:export-ydpi="96"
   inkscape:export-xdpi="96"
   style="stroke:#0000ff;stroke-width:0.288976;stroke-miterlimit:4;stroke-dasharray:none"
   transform="matrix(9.8093198,0,0,9.8093198,280.81355,-5207.5101)"
   id="g12"><g
     style="stroke:#0000ff;stroke-width:0.288976;stroke-miterlimit:4;stroke-dasharray:none"
     clip-path="url(#clipPath18)"
     id="g14"><g
       style="stroke:#0000ff;stroke-width:0.288976;stroke-miterlimit:4;stroke-dasharray:none"
       transform="translate(349.7405,361.3219)"
       id="g20"><path
         inkscape:connector-curvature="0"
         id="path28"
         style="fill:none;stroke:#0000ff;stroke-width:0.288976;stroke-linecap:round;stroke-linejoin:round;stroke-miterlimit:4;stroke-dasharray:none;stroke-opacity:1"
         d="M 0,0 C -0.558,1.047 -2.329,4.472 -2.92,6.386 -3.543,8.411 0.813,11.731 5.098,5.155 5.526,4.497 5.911,3.952 6.257,3.509 M 8.458,-3.254 -4.419,0.892 c -8.023,2.236 -9.651,-4.1 -6.317,-5.389 19.931,-7.701 28.134,-16.379 38.066,-15.888 6.468,0.319 15.053,2.361 24.888,2.361 3.798,0 15.761,-7.395 15.761,-7.395 4.688,-3.252 7.524,-12.54 -1.439,-31.408 0,0 -8.741,-20 -11.43,-25.191 M 0,0 22.95,12.125 36.514,2.799 m -14.233,9.326 c 0,19.1 8.609,15.679 8.609,32.721 0,13.919 -16.095,19.743 -16.095,40.971 m -0.048,-0.169 c 0,0 -4.011,0.255 -6.269,2.085 -2.258,1.828 -1.774,10.771 -8.592,13.387 -6.818,2.615 -11.353,3.604 -11.353,3.604 0,0 -0.386,-9.696 6.31,-14.36 C 1.535,85.702 7.295,88.005 7.295,88.005 M 24.973,59.768 22.159,59.036 c -2.812,-0.733 -9.719,4.969 -15.872,1.04 -6.154,-3.932 -9.642,-6.997 -9.642,-6.997 0,0 7.571,-6.067 15.3,-3.452 7.726,2.615 9.294,8.616 9.294,8.616 m -6.444,27.093 c 0,0 3.609,1.768 5.004,4.32 1.396,2.551 -2.463,10.636 2.845,15.652 5.305,5.014 9.126,7.655 9.126,7.655 0,0 4.051,-8.819 -0.363,-15.68 C 26.994,90.419 20.79,90.355 20.79,90.355 M -198.381,34.823 c -0.366,-1.286 -0.714,-2.578 -1.045,-3.877 m 33.13,60.971 C -181.793,75.568 -192.04,57.091 -198.381,34.823 m 115.272,9.983 v 5.928 c 0,10.16 -9.514,17.293 -13.471,22.593 -4.974,6.666 -7.85,14.975 -7.85,23.929 0,22.306 18.079,40.386 40.383,40.386 1.846,0 4.402,-0.029 4.886,-0.029 18.047,0 32.383,-8.818 32.383,-8.818 l 1.29,-25.279 c 0.275,-2.62 -1.909,-6.784 -1.909,-6.784 0,0 4.818,-9.856 8.524,-14.966 2.704,-3.731 -6.476,-6.892 -6.476,-6.892 l -1.518,-19.87 c -11.99,-4.549 -20.505,-3.998 -20.505,-3.998 v -2.034 c 0,-13.402 11.139,-24.64 30.676,-24.64 m -90.818,-142.544 -32.575,33.282 m 21.988,-113.784 v -31.81 c 0.202,-4.006 1.187,-8.05 3.76,-10.79 l 14.875,-14.594 c 4.142,-4.692 -4.149,-6.781 -4.149,-0.863 v 43.172 c 0,2.544 2.205,4.494 4.913,4.494 h 71.674 c 2.294,0 4.34,-1.95 4.489,-4.412 l 0.011,-55.858 h 13.08 c -0.507,-4.184 -4.072,-7.425 -8.394,-7.425 h -90.46 c -4.32,0 -7.885,3.241 -8.395,7.425 h 79.98 L -16.193,-245 c 3.666,3.808 6.134,8.302 6.385,13.328 l 0.01,2.038 m -173.078,148.405 c 9.632,-18.472 20.794,-34.196 28.285,-47.254 6.082,-10.606 8.671,-26.198 8.671,-26.198 m -38.878,103.939 c -7.55,-0.87 -15.776,7.853 -15.776,17.537 0,8.928 6.673,16.298 15.303,17.395 -0.985,2.765 -1.522,5.736 -1.522,8.836 0,14.535 11.027,26.678 26.316,26.678 12.788,0 17.952,-7.583 17.952,-7.583 0,0 5.458,7.585 18.03,7.585 10.481,0 17.222,-6.176 17.222,-6.176 v 46.29 c 0,0 -7.063,6.174 -17.222,6.174 -12.572,0 -18.03,-7.582 -18.03,-7.582 0,0 -5.462,7.582 -18.032,7.582 -10.159,0 -17.265,-6.174 -17.265,-6.174 V 29.753 m 76.692,1.826 v 0 c 0,7.306 6.38,13.229 13.689,13.229 h 4.33 M -199.427,30.946 c -1.582,-6.465 2.945,-10.886 7.198,-10.886 4.25,0 8.273,2.746 8.273,8.408 v 27.789 h 6.138 m 91.626,37.627 c 0,2.196 1.783,3.981 3.978,3.981 2.201,0 3.981,-1.785 3.981,-3.981 0,-2.201 -1.78,-3.98 -3.981,-3.98 -2.195,0 -3.978,1.779 -3.978,3.98 z m 22.121,-4.179 -14.056,3.239 m 16.271,-0.803 -4.322,14.024 m -3.615,0.931 -9.118,-10.182 m -108.458,-161.45 c 0,17.885 14.498,32.387 32.386,32.387 17.888,0 32.39,-14.502 32.39,-32.387 0,-17.886 -14.502,-32.386 -32.39,-32.386 -17.888,0 -32.386,14.5 -32.386,32.386 z m 44.823,172.223 V 58.412 m -5.495,55.26 c -6.763,7.049 -15.021,11.271 -19.419,13.311 0,0 -1.619,0.834 -2.93,0.834 -2.591,0 -4.694,-2.102 -4.694,-4.695 0,-0.547 0.096,-1.073 0.265,-1.56 l 0.154,-0.371 5.035,-10.982 c 0,0 1.581,-5.291 8.548,-5.291 h 6.179 c 0,0 -17.808,-6.323 -8.732,-15.981 13.931,-14.82 21.089,8.446 21.089,11.227 0,-2.781 7.155,-26.047 21.088,-11.227 9.076,9.658 -8.73,15.981 -8.73,15.981 h 6.175 c 6.968,0 8.55,5.291 8.55,5.291 l 5.036,10.982 0.153,0.371 c 0.171,0.487 0.264,1.013 0.264,1.56 0,2.593 -2.102,4.695 -4.694,4.695 -1.31,0 -2.929,-0.834 -2.929,-0.834 -5.705,-2.649 -17.909,-8.965 -24.913,-20.36 -1.607,2.61 -3.482,4.956 -5.495,7.049 m 76.572,-3.089 c 0,-2.197 1.781,-3.98 3.98,-3.98 2.199,0 3.981,1.783 3.981,3.98 0,2.199 -1.782,3.981 -3.981,3.981 -2.199,0 -3.98,-1.782 -3.98,-3.981 m 0,0 c 0,-2.197 1.781,-3.98 3.98,-3.98 2.199,0 3.981,1.783 3.981,3.98 0,2.199 -1.782,3.981 -3.981,3.981 -2.199,0 -3.98,-1.782 -3.98,-3.981 m 3.98,-3.98 c 2.199,0 3.981,1.783 3.981,3.98 0,2.199 -1.782,3.981 -3.981,3.981 -2.199,0 -3.98,-1.782 -3.98,-3.981 0,-2.197 1.781,-3.98 3.98,-3.98 z m 17.587,-6.139 c 0,-2.198 1.781,-3.98 3.981,-3.98 2.197,0 3.981,1.782 3.981,3.98 0,2.2 -1.784,3.981 -3.981,3.981 -2.2,0 -3.981,-1.781 -3.981,-3.981 m 3.981,-3.98 c 2.197,0 3.981,1.782 3.981,3.98 0,2.2 -1.784,3.981 -3.981,3.981 -2.2,0 -3.981,-1.781 -3.981,-3.981 0,-2.198 1.781,-3.98 3.981,-3.98 z M -62.613,68.238 c 0,-2.199 1.78,-3.981 3.98,-3.981 2.2,0 3.981,1.782 3.981,3.981 0,2.2 -1.781,3.981 -3.981,3.981 -2.2,0 -3.98,-1.781 -3.98,-3.981 m 3.98,-3.981 c 2.2,0 3.981,1.782 3.981,3.981 0,2.2 -1.781,3.981 -3.981,3.981 -2.2,0 -3.98,-1.781 -3.98,-3.981 0,-2.199 1.78,-3.981 3.98,-3.981 z m -5.653,24.215 c 0,-2.199 1.781,-3.98 3.981,-3.98 2.198,0 3.98,1.781 3.98,3.98 0,2.2 -1.782,3.981 -3.98,3.981 -2.2,0 -3.981,-1.781 -3.981,-3.981 m 93.52,-156.449 -14.12,14.133 c 3.233,2.798 5.282,6.934 5.282,11.548 0,8.43 -6.837,15.267 -15.268,15.267 l -0.003,-0.536 v -31.189 m -0.347,1.907 c 1.242,-3.016 -0.923,-6.764 -4.83,-8.37 -3.907,-1.609 -8.083,-0.469 -9.322,2.546 -1.241,3.014 0.923,6.762 4.83,8.371 3.909,1.609 8.083,0.469 9.322,-2.547 M 8.6,-80.008 -4.32,-93.095 m 10.47,-9.61 C -2.058,-110.51 -7.608,-102.9 -7.608,-102.9 l -8.968,-8.398 -4.432,-1.091 m 0,0 0.52,4.578 10.375,9.646 c -2.558,0.561 -4.934,2.467 -2.515,6.29 3.814,6.029 5.353,6.937 8.252,7.954 5.589,1.959 12.976,3.913 12.976,3.913 l 16.694,15.975 3.94,-3.944 -24.612,-24.461 m 11.705,11.301 c 1.877,-0.176 3.565,-1.498 5.476,-3.174 0,0 22.574,-18.709 33.307,2.293 m -55.79,-18.4 6.83,-2.287 c 2.009,-3.873 5.685,-7.017 10.279,-8.03 7.48,-1.652 10.143,0.836 12.507,1.79 5.642,2.276 9.779,-3.567 7.136,-8.176 l -6.015,-8.849 m -35.031,26.991 4.294,-1.439 m -4.294,1.439 c -3.732,1.25 -2.909,5.81 0.654,5.884 l 15.311,0.786 M 33.314,102.56 C 62.898,76.619 81.575,38.544 81.575,-3.892 c 0,-2.551 -0.068,-5.085 -0.199,-7.604 L 50.026,0.17 C 35.943,6.702 26.139,-0.427 26.139,-0.427 c 0,0 -14.242,-2.392 -14.981,-2.339 C 6.304,-2.429 5.353,-8.229 9.577,-9.275 L 28.404,-12.07 M -18.835,127.014 C 2.156,124.421 20.876,112.459 25.698,108.786 M -64.286,88.472 c 0,2.2 1.781,3.981 3.981,3.981 2.198,0 3.98,-1.781 3.98,-3.981 0,-2.199 -1.782,-3.98 -3.98,-3.98 -2.2,0 -3.981,1.781 -3.981,3.98 M -102.684,-14.56 c 0,11.084 -9.009,20.07 -20.09,20.07 -4.807,0 -9.216,-1.693 -12.672,-4.506 m 32.762,-15.317 c 0,11.003 -8.988,19.918 -19.99,19.918 -11,0 -19.918,-8.915 -19.918,-19.918 m 81.48,-57.431 32.834,33.344 c 6.446,6.826 8.748,16.126 8.748,22.169 0,12.058 -9.776,21.836 -21.836,21.836 -8.677,0 -16.173,-5.07 -19.695,-12.406 -3.517,7.336 -11.015,12.406 -19.693,12.406 -12.059,0 -21.93,-9.778 -21.93,-21.836 0,-6.435 0.526,-13.4 8.842,-22.169 z m 1.431,67.398 c 0,0 -3.037,-3.447 -3.037,-7.846 0,-2.814 3.621,-2.726 3.621,0.211 0,1.173 -0.512,2.835 -2.367,6.011 m -39.666,37.549 v 25.377 h -6.037 m -29.827,-57.432 c 0,2.705 -1.974,10.141 -7.324,14.542 m 83.212,-143.361 28.775,28.773 -28.781,28.778 -28.772,-28.772 z m 3.285,19.932 8.585,8.759 -11.787,11.781 -11.779,-11.781 m 23.751,32.699 -7.95,-7.95 m 12.063,3.839 -7.951,-7.953 m 4.111,-4.111 7.95,7.953 m 4.111,-4.111 -7.95,-7.952 m 12.062,3.84 -7.949,-7.952 m 4.111,-4.111 7.949,7.95 m -3.838,-12.061 7.95,7.95 m -7.946,-7.944 11.32,-11.871 m -15.431,7.761 7.95,-7.951 m -12.061,3.837 7.949,-7.948 m -12.062,3.836 7.95,-7.949 m -4.111,-4.111 -7.949,7.95 m 3.838,-12.061 -27.867,28.421 m 15.807,-24.584 7.947,-7.949 m -4.111,-4.11 -7.948,7.947 m -4.111,53.448 -7.951,7.951 m 3.839,-12.061 -7.949,7.95 m 3.838,-12.061 -7.95,7.949 m -4.111,-4.109 7.95,-7.952 m -12.061,3.84 7.949,-7.952 m -12.061,3.838 7.949,-7.949 m -4.112,-4.112 -7.948,7.95 m -9.678,-25.642 17.63,17.696 m -3.84,-12.06 7.951,7.949 m -3.838,-12.061 7.949,7.951 m 4.112,-4.112 -7.95,-7.949 m 12.062,3.838 -7.951,-7.952 m 12.062,3.84 -7.949,-7.95 m 4.111,-4.112 7.949,7.95 m 4.112,-4.111 -8.276,-8.249 -0.026,-1.474 m 99.463,13.048 c -4.775,-8.042 -15.353,-19.141 -15.353,-43.872 m -55.669,-82.933 c -21.587,0 -21.587,27.742 -43.722,27.742 m 0.274,-27.742 c 22.741,0 21.724,27.742 43.448,27.742 m -28.814,-22.126 10e-4,16.326 m -5.909,-20.283 v 24.226 m -6.668,-25.806 v 27.554 m 26.919,-5.843 v -16.024 m 5.908,20.076 0.003,-24.014 m 6.669,-1.749 -10e-4,27.554 m -96.96,140.792 c 6.022,4.602 10.286,12.026 10.286,20.188 0,13.913 -11.279,25.193 -25.193,25.193 -13.914,0 -25.193,-11.28 -25.193,-25.193 -0.001,-12.361 8.905,-22.646 20.653,-24.785 m 13.344,-65.734 5.438,-5.438 c -1.903,-2.691 -3.223,-5.815 -3.806,-9.194 h -4.839 l 0.002,-7.754 h 4.835 c 0.583,-3.382 1.904,-6.503 3.806,-9.197 l -3.337,-3.431 5.484,-5.482 3.336,3.43 c 2.693,-1.899 5.814,-3.219 9.194,-3.803 l 2.04,7.162 m 5.666,-10.326 v 3.164 c 3.382,0.584 6.552,1.904 9.245,3.803 l 3.413,-3.411 5.482,5.485 -3.413,3.411 c 1.901,2.692 3.222,5.816 3.805,9.195 h 3.951 l -0.001,7.754 h -3.953 c -0.582,3.379 -1.901,6.501 -3.803,9.194 l 2.881,3.164 -5.483,5.48 -2.88,-3.162 c -2.692,1.902 -5.815,3.22 -9.196,3.805 v 4.946 h -7.754 v -4.946 c -3.379,-0.585 -6.5,-1.903 -9.193,-3.802 l -3.274,3.275 m 7.783,-34.529 c -4.072,2.753 -6.75,7.41 -6.75,12.697 0,8.457 6.857,15.31 15.312,15.31 8.454,0 15.311,-6.853 15.311,-15.31 0,-8.456 -6.857,-15.312 -15.311,-15.312 -0.623,0 -1.235,0.035 -1.837,0.107 m 114.13,-35.044 h 28.303 v 4.742 H 4.431 l -14.234,16.41 m 0.355,7.53 c 13.339,0 24.152,10.814 24.152,24.153 0,13.34 -10.813,24.154 -24.152,24.154 -13.339,0 -24.152,-10.814 -24.152,-24.154 0,-13.339 10.813,-24.153 24.152,-24.153 z m -20.782,47.839 c -6.873,-5.781 -10.735,-14.001 -10.735,-23.686 0,-17.407 14.111,-31.517 31.517,-31.517 7.935,0 14.597,2.438 20.138,7.279 m 4.014,-4.7 -8.795,10.297 m -31.363,36.734 -8.812,10.32 m 43.518,-13.137 -36.809,-31.251 m 17.754,-43.054 v 27.346 m -59.603,22.265 c 0,5.398 2.721,10.093 6.725,14.118 4.03,4.02 8.739,6.724 14.114,6.724 -5.375,0 -10.084,2.034 -14.114,6.053 -4.004,4.001 -6.725,8.719 -6.725,14.11 0,-5.365 -2.016,-10.058 -6.036,-14.11 -4.022,-4.019 -8.725,-6.053 -14.1,-6.053 5.375,0 10.078,-2.704 14.1,-6.724 4.02,-4.025 6.036,-8.72 6.036,-14.118 z" /></g><g
       style="stroke:#0000ff;stroke-width:0.288976;stroke-miterlimit:4;stroke-dasharray:none"
       transform="translate(285.3186,147.3893)"
       id="g30"><path
         inkscape:connector-curvature="0"
         id="path32"
         style="fill:#dd1865;fill-opacity:1;fill-rule:nonzero;stroke:#0000ff;stroke-width:0.288976;stroke-miterlimit:4;stroke-dasharray:none"
         d="M 0,0 C 0,0.881 0.716,1.598 1.599,1.598 2.477,1.598 3.191,0.881 3.191,0 3.191,-0.885 2.477,-1.598 1.599,-1.598 0.716,-1.598 0,-0.885 0,0" /></g><g
       style="stroke:#0000ff;stroke-width:0.288976;stroke-miterlimit:4;stroke-dasharray:none"
       transform="translate(205.8426,475.1842)"
       id="g34"><path
         inkscape:connector-curvature="0"
         id="path36"
         style="fill:#f89521;fill-opacity:1;fill-rule:nonzero;stroke:#0000ff;stroke-width:0.288976;stroke-miterlimit:4;stroke-dasharray:none"
         d="M 0,0 C 0,0.807 0.657,1.465 1.466,1.465 2.273,1.465 2.927,0.807 2.927,0 2.927,-0.81 2.273,-1.465 1.466,-1.465 0.657,-1.465 0,-0.81 0,0" /></g></g></g><text
   inkscape:export-ydpi="96"
   inkscape:export-xdpi="96"
   transform="scale(1,-1)"
   id="text3729"
   y="429.60672"
   x="897.47394"
   style="font-style:normal;font-weight:normal;font-size:32.0555px;line-height:1.25;font-family:sans-serif;letter-spacing:0px;word-spacing:0px;fill:#000000;fill-opacity:1;stroke:none;stroke-width:0.801387"
   xml:space="preserve"><tspan
     style="font-style:normal;font-variant:normal;font-weight:normal;font-stretch:normal;font-size:38.4666px;font-family:'Bodoni 72';-inkscape-font-specification:'Bodoni 72, Normal';font-variant-ligatures:normal;font-variant-caps:normal;font-variant-numeric:normal;font-feature-settings:normal;text-align:start;writing-mode:lr-tb;text-anchor:start;stroke-width:0.801387"
     y="429.60672"
     x="897.47394"
     id="tspan3727"
     sodipodi:role="line" /></text>
<rect
   inkscape:export-ydpi="96"
   inkscape:export-xdpi="96"
   style="fill:none;stroke:#000000;stroke-width:0.750001;stroke-opacity:1"
   transform="scale(1,-1)"
   y="-83.065147"
   x="816.06"
   height="4857.5518"
   width="4623.6406"
   id="rect70" /><text
   xml:space="preserve"
   style="font-size:320.345px;line-height:1.25;font-family:sans-serif;writing-mode:tb-rl;stroke-width:2.22425"
   x="1276.9106"
   y="723.96228"
   id="text857"
   transform="scale(1,-1)"><tspan
     sodipodi:role="line"
     id="tspan855"
     x="1035.3574"
     y="965.51544"
     style="font-style:normal;font-variant:normal;font-weight:normal;font-stretch:normal;font-family:'Hyper heliX';-inkscape-font-specification:'Hyper heliX';writing-mode:tb-rl;text-orientation:upright;stroke-width:2.22425"
     dy="0"
     rotate="0 0 0 0 0 0 0 0 0 0 0">Scottsdale</tspan></text><text
   id="text857-5"
   y="83.278175"
   x="4964.5889"
   style="font-size:320.345px;line-height:1.25;font-family:sans-serif;writing-mode:tb-rl;stroke-width:2.22425"
   xml:space="preserve"
   transform="scale(1,-1)"><tspan
     rotate="0 0 0 0 0 0 0 0 0 0 0 0 0 0 0"
     style="font-style:normal;font-variant:normal;font-weight:normal;font-stretch:normal;font-family:'Hyper heliX';-inkscape-font-specification:'Hyper heliX';writing-mode:tb-rl;text-orientation:upright;stroke-width:2.22425"
     y="4653.1938"
     x="394.67337"
     id="tspan855-5"
     sodipodi:role="line">Innovation Lab</tspan></text><circle
   transform="scale(1,-1)"
   r="21.016548"
   cy="2.8971806"
   cx="2356.2104"
   id="path2030"
   style="fill:none;stroke:#000000;stroke-width:8.40662;stroke-miterlimit:4;stroke-dasharray:none" /><path
   id="path2055"
   d="M 816.06001,83.065143 H 2354.4714"
   style="fill:none;stroke:#ff00ff;stroke-width:2.22425px;stroke-linecap:butt;stroke-linejoin:miter;stroke-opacity:1" /><path
   style="fill:none;stroke:#ff00ff;stroke-width:2.22425px;stroke-linecap:butt;stroke-linejoin:miter;stroke-opacity:1"
   d="M 3901.2893,83.065147 H 5439.7007"
   id="path2055-6" /><path
   id="path2074"
   d="M 2354.4715,83.065144 V 20.015498"
   style="fill:none;stroke:#ff00ff;stroke-width:2.22425px;stroke-linecap:butt;stroke-linejoin:miter;stroke-opacity:1" /><circle
   transform="scale(1,-1)"
   style="fill:none;stroke:#000000;stroke-width:8.40662;stroke-miterlimit:4;stroke-dasharray:none"
   id="path2030-3"
   cx="3903.0283"
   cy="2.8971684"
   r="21.016548" /><path
   style="fill:none;stroke:#ff00ff;stroke-width:2.22425px;stroke-linecap:butt;stroke-linejoin:miter;stroke-opacity:1"
   d="M 3901.2893,83.065147 V 20.015497"
   id="path2074-0" /></g></g></svg>
